<svg width="26" height="26" viewBox="0 0 26 26" fill="none" xmlns="http://www.w3.org/2000/svg">
<path fill-rule="evenodd" clip-rule="evenodd" d="M13 1.08331C6.41874 1.08331 1.08333 6.41873 1.08333 13C1.08333 19.5812 6.41874 24.9166 13 24.9166C19.5812 24.9166 24.9167 19.5812 24.9167 13C24.9167 6.41873 19.5812 1.08331 13 1.08331ZM3.24999 13C3.24999 11.7196 3.50219 10.4517 3.99217 9.26882C4.48215 8.08589 5.20033 7.01106 6.1057 6.10569C7.01107 5.20032 8.08591 4.48214 9.26883 3.99215C10.4518 3.50217 11.7196 3.24998 13 3.24998C14.2804 3.24998 15.5482 3.50217 16.7312 3.99215C17.9141 4.48214 18.9889 5.20032 19.8943 6.10569C20.7997 7.01106 21.5178 8.08589 22.0078 9.26882C22.4978 10.4517 22.75 11.7196 22.75 13C22.75 15.5858 21.7228 18.0658 19.8943 19.8943C18.0658 21.7227 15.5859 22.75 13 22.75C10.4141 22.75 7.93418 21.7227 6.1057 19.8943C4.27722 18.0658 3.24999 15.5858 3.24999 13ZM14.0833 7.58331C14.0833 7.29599 13.9692 7.02044 13.766 6.81728C13.5629 6.61412 13.2873 6.49998 13 6.49998C12.7127 6.49998 12.4371 6.61412 12.234 6.81728C12.0308 7.02044 11.9167 7.29599 11.9167 7.58331V13C11.9167 13.1682 11.9558 13.334 12.031 13.4845C12.1062 13.6349 12.2154 13.7657 12.35 13.8666L16.6833 17.1166C16.9132 17.289 17.2021 17.3631 17.4865 17.3224C17.771 17.2818 18.0276 17.1298 18.2 16.9C18.3724 16.6701 18.4464 16.3812 18.4058 16.0968C18.3651 15.8123 18.2132 15.5557 17.9833 15.3833L14.0833 12.4583V7.58331Z" fill="#455154"/>
</svg>
