<svg width="24" height="22" viewBox="0 0 24 22" fill="none" xmlns="http://www.w3.org/2000/svg">
<g clip-path="url(#clip0_8_428)">
<path d="M22 3.64372H16.1333V2.22289C16.1333 1.82567 16.0378 1.459 15.8469 1.12289C15.6559 0.786777 15.3885 0.519416 15.0448 0.320805C14.701 0.122194 14.3306 0.0228882 13.9333 0.0228882H9.53333C8.92222 0.0228882 8.40278 0.240597 7.975 0.676013C7.54722 1.11143 7.33333 1.62705 7.33333 2.22289V3.64372H1.46667C1.06944 3.64372 0.725694 3.78886 0.435417 4.07914C0.145139 4.36942 0 4.71317 0 5.11039V20.5104C0 20.9076 0.145139 21.2514 0.435417 21.5416C0.725694 21.8319 1.06944 21.9771 1.46667 21.9771H22C22.3972 21.9771 22.741 21.8319 23.0312 21.5416C23.3215 21.2514 23.4667 20.9076 23.4667 20.5104V5.11039C23.4667 4.85067 23.4017 4.61004 23.2719 4.38851C23.142 4.16699 22.9625 3.98747 22.7333 3.84997C22.5042 3.71247 22.2597 3.64372 22 3.64372ZM8.8 2.22289C8.8 2.02428 8.87257 1.8524 9.01771 1.70726C9.16285 1.56212 9.33472 1.48955 9.53333 1.48955H13.9333C14.1472 1.48955 14.3229 1.56212 14.4604 1.70726C14.5979 1.8524 14.6667 2.02428 14.6667 2.22289V3.64372H8.8V2.22289ZM1.46667 5.11039H22V10.2666H13.9333V9.51039C13.9333 9.25067 13.8646 9.00622 13.7271 8.77705C13.5896 8.54789 13.4101 8.36837 13.1885 8.23851C12.967 8.10865 12.7264 8.04372 12.4667 8.04372H11C10.5875 8.04372 10.2399 8.18886 9.95729 8.47914C9.67465 8.76942 9.53333 9.11317 9.53333 9.51039V10.2666H1.46667V5.11039ZM12.4667 13.2H11V9.51039H12.4667V13.2ZM1.46667 20.5104V11.7333H9.53333V13.2C9.53333 13.6125 9.67465 13.96 9.95729 14.2427C10.2399 14.5253 10.5875 14.6666 11 14.6666H12.4667C12.7264 14.6666 12.967 14.6017 13.1885 14.4718C13.4101 14.342 13.5896 14.1625 13.7271 13.9333C13.8646 13.7041 13.9333 13.4597 13.9333 13.2V11.7333H22V20.5104H1.46667Z" fill="#455154"/>
</g>
<defs>
<clipPath id="clip0_8_428">
<rect width="23.4667" height="22" fill="white"/>
</clipPath>
</defs>
</svg>
