<svg width="26" height="26" viewBox="0 0 26 26" fill="none" xmlns="http://www.w3.org/2000/svg">
<path d="M4.44235 19.2969C4.50329 19.0745 4.36973 18.7652 4.24227 18.5423C4.20276 18.4757 4.1597 18.4113 4.11329 18.3493C3.0201 16.6914 2.43744 14.7492 2.43751 12.7634C2.41923 7.06316 7.14594 2.4375 12.9909 2.4375C18.0883 2.4375 22.3438 5.96883 23.3375 10.6564C23.4867 11.3514 23.5621 12.0602 23.5625 12.771C23.5625 18.4793 19.0181 23.1776 13.1732 23.1776C12.2434 23.1776 10.9896 22.944 10.3056 22.7525C9.62153 22.5611 8.93852 22.3072 8.76231 22.2391C8.58192 22.1699 8.39035 22.1342 8.19712 22.134C7.9864 22.1333 7.77772 22.1753 7.58368 22.2574L4.13868 23.5005C4.0634 23.5331 3.9836 23.554 3.90204 23.5625C3.83752 23.5623 3.77368 23.5493 3.71422 23.5243C3.65475 23.4993 3.60084 23.4627 3.5556 23.4167C3.51036 23.3707 3.47468 23.3162 3.45065 23.2563C3.42661 23.1964 3.41468 23.1324 3.41555 23.0679C3.41979 23.0113 3.43 22.9553 3.44602 22.9008L4.44235 19.2969Z" stroke="#455154" stroke-width="2" stroke-miterlimit="10" stroke-linecap="round"/>
<path d="M8.125 14.625C9.02246 14.625 9.75 13.8975 9.75 13C9.75 12.1025 9.02246 11.375 8.125 11.375C7.22754 11.375 6.5 12.1025 6.5 13C6.5 13.8975 7.22754 14.625 8.125 14.625Z" fill="#455154"/>
<path d="M13 14.625C13.8975 14.625 14.625 13.8975 14.625 13C14.625 12.1025 13.8975 11.375 13 11.375C12.1025 11.375 11.375 12.1025 11.375 13C11.375 13.8975 12.1025 14.625 13 14.625Z" fill="#455154"/>
<path d="M17.875 14.625C18.7725 14.625 19.5 13.8975 19.5 13C19.5 12.1025 18.7725 11.375 17.875 11.375C16.9775 11.375 16.25 12.1025 16.25 13C16.25 13.8975 16.9775 14.625 17.875 14.625Z" fill="#455154"/>
</svg>
